<svg aria-hidden="true" style="position:absolute;overflow:hidden" xmlns="http://www.w3.org/2000/svg"><defs><symbol id="icon-cart" viewBox="0 0 32 32"><path d="M5.867.034c-.454.149-.459.154-3.081 3.298C1.367 5.034.166 6.498.117 6.587c-.083.147-.09.972-.09 11.066V28.56l.147.425a4.437 4.437 0 0 0 3.398 2.928l.027.004c.412.072 1.914.082 12.402.082s11.989-.009 12.402-.082c1.476-.257 2.767-1.286 3.314-2.641.3-.742.287-.156.271-11.796-.013-9.918-.02-10.747-.103-10.894-.049-.089-1.25-1.553-2.67-3.253C27.244.97 26.585.214 26.425.132c-.207-.104-.326-.107-10.344-.115C10.508.011 5.912.019 5.868.034zM26.873 4.23l1.513 1.823-6.193.014c-3.406.007-8.981.007-12.388 0l-6.193-.014 3.027-3.647h18.72l1.512 1.824zM29.6 18.363v9.882l-.137.276c-.165.331-.589.729-.958.898-.185.079-.4.141-.624.176l-.016.002c-.241.034-4.43.053-11.865.053s-11.624-.019-11.865-.053a2.828 2.828 0 0 1-.671-.19l.019.007c-.366-.167-.779-.558-.948-.897l-.135-.273V8.479h27.2v9.883zM8.894 12.21c-.271.088-.508.271-.608.471-.081.162-.098.324-.098.866 0 .987.181 1.735.666 2.759a6.446 6.446 0 0 0 1.332 1.884l.001.001c1.543 1.566 3.556 2.395 5.813 2.395 2.226 0 4.251-.824 5.762-2.342.627-.629.962-1.094 1.331-1.844.533-1.086.719-1.824.719-2.854.001-.807-.068-.992-.447-1.215-.216-.127-.302-.146-.699-.146s-.484.019-.699.146c-.339.199-.422.399-.508 1.24-.109 1.043-.301 1.595-.817 2.341-.821 1.186-2.162 1.99-3.753 2.248-2.443.396-5.007-.888-5.957-2.981-.23-.507-.321-.882-.393-1.62-.082-.82-.166-1.029-.498-1.223-.185-.108-.325-.143-.62-.156a2.195 2.195 0 0 0-.54.032l.013-.002z"/></symbol><symbol id="icon-menu" viewBox="0 0 52 32"><path d="M1.28.086a1.78 1.78 0 0 0-1.018.79L.258.884c-.18.316-.212.484-.21 1.11.004 1.11.354 1.658 1.208 1.896.472.13 35.04.136 35.51.006.772-.214 1.19-.874 1.192-1.884.002-.704-.142-1.144-.498-1.516-.502-.524.542-.496-18.518-.488C9.358.012 1.41.048 1.28.086zm-.24 14.092a1.566 1.566 0 0 0-.909 1.011l-.003.011c-.358 1.204.086 2.338 1.042 2.664.29.1 4.338.12 24.83.12 26.676 0 24.84.034 25.444-.494.696-.612.73-2.308.06-2.95-.564-.54 1.51-.5-25.522-.496-21.82.002-24.674.018-24.942.134zm.152 13.938c-.854.306-1.14.772-1.146 1.87-.002.646.026.786.228 1.128.151.251.355.455.598.602l.008.004.376.216 17.464.028c12.74.018 17.586 0 17.92-.072.892-.192 1.316-.806 1.316-1.906 0-1.028-.412-1.686-1.19-1.902-.218-.06-6.03-.088-17.786-.086-14.338.002-17.522.024-17.788.118z"/></symbol></defs></svg>