<svg aria-hidden="true" style="position: absolute; overflow: hidden;" version="1.1" xmlns="http://www.w3.org/2000/svg" xmlns:xlink="http://www.w3.org/1999/xlink">
<defs>
<symbol id="icon-cart" viewBox="0 0 32 32">
<path d="M5.867 0.034c-0.454 0.149-0.459 0.154-3.081 3.298-1.419 1.702-2.62 3.166-2.669 3.255-0.083 0.147-0.090 0.972-0.090 11.066v10.907l0.147 0.425c0.527 1.518 1.817 2.644 3.398 2.928l0.027 0.004c0.412 0.072 1.914 0.082 12.402 0.082s11.989-0.009 12.402-0.082c1.476-0.257 2.767-1.286 3.314-2.641 0.3-0.742 0.287-0.156 0.271-11.796-0.013-9.918-0.020-10.747-0.103-10.894-0.049-0.089-1.25-1.553-2.67-3.253-1.971-2.363-2.63-3.119-2.79-3.201-0.207-0.104-0.326-0.107-10.344-0.115-5.573-0.006-10.169 0.002-10.213 0.017zM26.873 4.23l1.513 1.823-6.193 0.014c-3.406 0.007-8.981 0.007-12.388 0l-6.193-0.014 3.027-3.647h18.72l1.512 1.824zM29.6 18.363v9.882l-0.137 0.276c-0.165 0.331-0.589 0.729-0.958 0.898-0.185 0.079-0.4 0.141-0.624 0.176l-0.016 0.002c-0.241 0.034-4.43 0.053-11.865 0.053s-11.624-0.019-11.865-0.053c-0.245-0.039-0.464-0.102-0.671-0.19l0.019 0.007c-0.366-0.167-0.779-0.558-0.948-0.897l-0.135-0.273v-19.765h27.2v9.883zM8.894 12.21c-0.271 0.088-0.508 0.271-0.608 0.471-0.081 0.162-0.098 0.324-0.098 0.866 0 0.987 0.181 1.735 0.666 2.759 0.344 0.731 0.791 1.355 1.332 1.884l0.001 0.001c1.543 1.566 3.556 2.395 5.813 2.395 2.226 0 4.251-0.824 5.762-2.342 0.627-0.629 0.962-1.094 1.331-1.844 0.533-1.086 0.719-1.824 0.719-2.854 0.001-0.807-0.068-0.992-0.447-1.215-0.216-0.127-0.302-0.146-0.699-0.146s-0.484 0.019-0.699 0.146c-0.339 0.199-0.422 0.399-0.508 1.24-0.109 1.043-0.301 1.595-0.817 2.341-0.821 1.186-2.162 1.99-3.753 2.248-2.443 0.396-5.007-0.888-5.957-2.981-0.23-0.507-0.321-0.882-0.393-1.62-0.082-0.82-0.166-1.029-0.498-1.223-0.185-0.108-0.325-0.143-0.62-0.156-0.044-0.003-0.095-0.005-0.146-0.005-0.135 0-0.267 0.013-0.394 0.037l0.013-0.002z"></path>
</symbol>
<symbol id="icon-menu" viewBox="0 0 52 32">
<path d="M1.28 0.086c-0.437 0.132-0.794 0.416-1.018 0.79l-0.004 0.008c-0.18 0.316-0.212 0.484-0.21 1.11 0.004 1.11 0.354 1.658 1.208 1.896 0.472 0.13 35.040 0.136 35.51 0.006 0.772-0.214 1.19-0.874 1.192-1.884 0.002-0.704-0.142-1.144-0.498-1.516-0.502-0.524 0.542-0.496-18.518-0.488-9.584 0.004-17.532 0.040-17.662 0.078zM1.040 14.178c-0.443 0.184-0.778 0.555-0.909 1.011l-0.003 0.011c-0.358 1.204 0.086 2.338 1.042 2.664 0.29 0.1 4.338 0.12 24.83 0.12 26.676 0 24.84 0.034 25.444-0.494 0.696-0.612 0.73-2.308 0.060-2.95-0.564-0.54 1.51-0.5-25.522-0.496-21.82 0.002-24.674 0.018-24.942 0.134zM1.192 28.116c-0.854 0.306-1.14 0.772-1.146 1.87-0.002 0.646 0.026 0.786 0.228 1.128 0.151 0.251 0.355 0.455 0.598 0.602l0.008 0.004 0.376 0.216 17.464 0.028c12.74 0.018 17.586 0 17.92-0.072 0.892-0.192 1.316-0.806 1.316-1.906 0-1.028-0.412-1.686-1.19-1.902-0.218-0.060-6.030-0.088-17.786-0.086-14.338 0.002-17.522 0.024-17.788 0.118z"></path>
</symbol>
</defs>
</svg>
